<?xml version="1.0" encoding="utf-8"?>
<!-- Generator: Adobe Illustrator 26.5.1, SVG Export Plug-In . SVG Version: 6.00 Build 0)  -->
<svg version="1.1" id="Layer_1" xmlns="http://www.w3.org/2000/svg" xmlns:xlink="http://www.w3.org/1999/xlink" x="0px" y="0px"
	 viewBox="0 0 2084 1251" style="enable-background:new 0 0 2084 1251;" xml:space="preserve">
<style type="text/css">
	.st0{clip-path:url(#SVGID_00000180347906242198744360000004829568965631368067_);}
	.st1{fill:#252525;}
	.st2{fill:url(#SVGID_00000126318348020276568400000014340804775530253992_);}
	.st3{fill:url(#SVGID_00000057860922347759189420000000318175665776567214_);}
	.st4{fill:url(#SVGID_00000157280855960708517220000002813375687567888060_);}
	.st5{fill:url(#SVGID_00000183931161080602556500000004695061691252267680_);}
	.st6{fill:url(#SVGID_00000096038747728499643120000014187935399976837036_);}
	.st7{fill:#373737;}
	.st8{fill:#9B9283;}
	.st9{fill:#8F8F8F;}
	.st10{fill:url(#SVGID_00000101104542243542011410000008274157938009228727_);}
	.st11{fill:url(#SVGID_00000181797489339592005220000000232244150248799114_);}
	.st12{fill:url(#SVGID_00000154398272201557271950000008448281073413949352_);}
	.st13{fill:url(#SVGID_00000112613989212902500100000010155091473751884714_);}
	.st14{fill:url(#SVGID_00000015313836221138127240000002108713940208367005_);}
	.st15{fill:#FACA00;}
	.st16{fill:#2E2E2E;}
	.st17{fill:#FFF4C5;}
</style>
<g>
	<defs>
		<rect id="SVGID_1_" x="23.2" y="6.4" width="2037.6" height="1222.6"/>
	</defs>
	<clipPath id="SVGID_00000117659620620569062260000008885064373862501767_">
		<use xlink:href="#SVGID_1_"  style="overflow:visible;"/>
	</clipPath>
	<g style="clip-path:url(#SVGID_00000117659620620569062260000008885064373862501767_);">
		<g>
			
				<image style="overflow:visible;" width="404" height="497" xlink:href="15BB460E.png"  transform="matrix(0.24 0 0 0.24 1615.92 301.8)">
			</image>
		</g>
		<g>
			<g>
				
					<image style="overflow:visible;" width="21" height="1957" xlink:href="15BB4612.png"  transform="matrix(0.24 0 0 0.24 1562.88 -343.56)">
				</image>
				
					<image style="overflow:visible;" width="21" height="1957" xlink:href="15BB4615.png"  transform="matrix(0.24 0 0 0.24 1738.8 -343.56)">
				</image>
			</g>
			<g>
				<g>
					<g>
						<path class="st1" d="M1557.5,136c0,21.1,17.1,38.2,38.2,38.2c21.1,0,38.2-17.1,38.2-38.2c0-21.1-17.1-38.2-38.2-38.2
							C1574.6,97.8,1557.5,114.9,1557.5,136z"/>
					</g>
					<g>
						
							<linearGradient id="SVGID_00000151537481168790572780000011571584919755907773_" gradientUnits="userSpaceOnUse" x1="4786.2847" y1="92.4467" x2="4786.2847" y2="194.4605" gradientTransform="matrix(-1 0 0 1 6382 0)">
							<stop  offset="0" style="stop-color:#515151"/>
							<stop  offset="1" style="stop-color:#252525"/>
						</linearGradient>
						<path style="fill:url(#SVGID_00000151537481168790572780000011571584919755907773_);" d="M1559.1,136
							c0,20.2,16.4,36.6,36.6,36.6c20.2,0,36.6-16.4,36.6-36.6c0-20.2-16.4-36.6-36.6-36.6S1559.1,115.8,1559.1,136z"/>
					</g>
					<g>
						<path class="st1" d="M1570,136c0,14.2,11.5,25.8,25.8,25.8s25.8-11.5,25.8-25.8c0-14.2-11.5-25.8-25.8-25.8
							S1570,121.8,1570,136z"/>
					</g>
				</g>
				<g>
					<g>
						<path class="st1" d="M1672.7,136c0,21.1,17.1,38.2,38.2,38.2c21.1,0,38.2-17.1,38.2-38.2c0-21.1-17.1-38.2-38.2-38.2
							C1689.8,97.8,1672.7,114.9,1672.7,136z"/>
					</g>
					<g>
						
							<linearGradient id="SVGID_00000044162930269032890350000003936330397230159503_" gradientUnits="userSpaceOnUse" x1="4671.1494" y1="92.4467" x2="4671.1494" y2="194.4605" gradientTransform="matrix(-1 0 0 1 6382 0)">
							<stop  offset="0" style="stop-color:#515151"/>
							<stop  offset="1" style="stop-color:#252525"/>
						</linearGradient>
						<path style="fill:url(#SVGID_00000044162930269032890350000003936330397230159503_);" d="M1674.2,136
							c0,20.2,16.4,36.6,36.6,36.6c20.2,0,36.6-16.4,36.6-36.6c0-20.2-16.4-36.6-36.6-36.6C1690.6,99.4,1674.2,115.8,1674.2,136z"/>
					</g>
					<g>
						<path class="st1" d="M1685.1,136c0,14.2,11.5,25.8,25.8,25.8c14.2,0,25.8-11.5,25.8-25.8c0-14.2-11.5-25.8-25.8-25.8
							C1696.6,110.2,1685.1,121.8,1685.1,136z"/>
					</g>
				</g>
			</g>
			
				<image style="overflow:visible;" width="189" height="233" xlink:href="15BB4616.png"  transform="matrix(0.24 0 0 0.24 1630.5601 254.76)">
			</image>
			
				<linearGradient id="SVGID_00000019678930811160017820000006220020619140558003_" gradientUnits="userSpaceOnUse" x1="4728.7173" y1="117.0714" x2="4728.7173" y2="260.9424" gradientTransform="matrix(-1 0 0 1 6382 0)">
				<stop  offset="0" style="stop-color:#FACA00"/>
				<stop  offset="1" style="stop-color:#F0AA00"/>
			</linearGradient>
			<path style="fill:url(#SVGID_00000019678930811160017820000006220020619140558003_);" d="M1653.3,272.1c1.6,0,3.1-0.3,4.5-0.8
				l126.8-48.2c4-1.5,7-4.9,7.9-9.1l11.7-52.4c1.1-4.9-0.8-10.1-4.9-13.1l-36.8-27c-2.2-1.6-4.8-2.5-7.5-2.5h-203.4
				c-2.7,0-5.3,0.9-7.5,2.5l-36.8,27c-4.1,3-6,8.1-4.9,13.1L1514,214c0.9,4.2,3.9,7.6,7.9,9.1l126.8,48.2
				C1650.2,271.8,1651.7,272.1,1653.3,272.1z"/>
			
				<linearGradient id="SVGID_00000114795631336614868880000009665575759807969946_" gradientUnits="userSpaceOnUse" x1="4728.7173" y1="108.6277" x2="4728.7173" y2="285.8831" gradientTransform="matrix(-1 0 0 1 6382 0)">
				<stop  offset="0" style="stop-color:#FFDA00"/>
				<stop  offset="1" style="stop-color:#F5BA00"/>
			</linearGradient>
			<path style="fill:url(#SVGID_00000114795631336614868880000009665575759807969946_);" d="M1761.6,122.7l36.8,27
				c3.6,2.6,5.3,7.1,4.3,11.5l-11.7,52.4c-0.8,3.7-3.4,6.7-7,8l-126.8,48.2c-2.6,1-5.4,1-8,0l-126.8-48.2c-3.5-1.3-6.1-4.4-7-8
				l-11.7-52.4c-1-4.3,0.7-8.8,4.3-11.5l36.8-27c1.9-1.4,4.2-2.2,6.6-2.2H1755C1757.4,120.6,1759.7,121.3,1761.6,122.7z"/>
			
				<linearGradient id="SVGID_00000165203161939082023340000015628727455455163327_" gradientUnits="userSpaceOnUse" x1="4728.7173" y1="102.6373" x2="4728.7173" y2="250.5879" gradientTransform="matrix(-1 0 0 1 6382 0)">
				<stop  offset="0" style="stop-color:#FACA00"/>
				<stop  offset="1" style="stop-color:#F0AA00"/>
			</linearGradient>
			<polygon style="fill:url(#SVGID_00000165203161939082023340000015628727455455163327_);" points="1773.8,205.7 1783.6,161.9 
				1752.6,139.1 1554,139.1 1523,161.9 1532.8,205.7 1653.3,251.5 			"/>
			<g>
				<polygon class="st7" points="1645.6,139.1 1675.1,139.1 1750.5,214.6 1729.1,222.7 				"/>
				<polygon class="st7" points="1550.1,142 1554,139.1 1576.7,139.1 1679.2,241.6 1657.9,249.7 				"/>
				<polygon class="st7" points="1724.2,139.1 1776.9,191.8 1773.8,205.7 1764.8,209.1 1694.8,139.1 				"/>
				<polygon class="st7" points="1596.4,139.1 1625.9,139.1 1714.9,228.1 1693.5,236.2 				"/>
				<polygon class="st7" points="1552.4,213.2 1532.8,205.7 1529.3,190 				"/>
				<polygon class="st7" points="1743.9,139.1 1752.6,139.1 1783.6,161.9 1780.5,175.7 				"/>
				<polygon class="st7" points="1523.6,164.7 1523,161.9 1538.7,150.3 1631.7,243.3 1584.2,225.2 				"/>
			</g>
			<polygon class="st8" points="1651.7,246.8 1772.3,201.1 1781.4,160.2 1783.6,161.9 1773.8,205.7 1653.3,251.5 1532.8,205.7 
				1531.8,201.3 			"/>
			<g>
				<g>
					<g>
						<g>
							<circle class="st9" cx="1761.2" cy="183" r="9.3"/>
						</g>
						<g>
							
								<image style="overflow:visible;" width="68" height="68" xlink:href="15BB4614.png"  transform="matrix(0.24 0 0 0.24 1752.96 174.84)">
							</image>
							
								<image style="overflow:visible;" width="62" height="62" xlink:href="15BB4613.png"  transform="matrix(0.24 0 0 0.24 1753.6801 175.56)">
							</image>
						</g>
					</g>
					<g>
						<g>
							<circle class="st9" cx="1545.4" cy="183" r="9.3"/>
						</g>
						<g>
							
								<image style="overflow:visible;" width="69" height="68" xlink:href="15BB461D.png"  transform="matrix(0.24 0 0 0.24 1537.2 174.84)">
							</image>
							
								<image style="overflow:visible;" width="62" height="62" xlink:href="15BB461E.png"  transform="matrix(0.24 0 0 0.24 1537.92 175.56)">
							</image>
						</g>
					</g>
				</g>
				<g>
					<g>
						<g>
							<circle class="st9" cx="1653.3" cy="152.9" r="9.3"/>
						</g>
						<g>
							
								<image style="overflow:visible;" width="69" height="69" xlink:href="15BB461C.png"  transform="matrix(0.24 0 0 0.24 1644.96 144.6)">
							</image>
							
								<image style="overflow:visible;" width="63" height="63" xlink:href="24112051.png"  transform="matrix(0.24 0 0 0.24 1645.6801 145.32)">
							</image>
						</g>
					</g>
					<g>
						<g>
							<circle class="st9" cx="1653.3" cy="230.5" r="9.3"/>
						</g>
						<g>
							
								<image style="overflow:visible;" width="69" height="68" xlink:href="24112057.png"  transform="matrix(0.24 0 0 0.24 1644.96 222.36)">
							</image>
							
								<image style="overflow:visible;" width="63" height="62" xlink:href="24112050.png"  transform="matrix(0.24 0 0 0.24 1645.6801 223.08)">
							</image>
						</g>
					</g>
				</g>
			</g>
		</g>
	</g>
	<g style="clip-path:url(#SVGID_00000117659620620569062260000008885064373862501767_);">
		<g>
			
				<image style="overflow:visible;" width="403" height="497" xlink:href="24112053.png"  transform="matrix(0.24 0 0 0.24 371.28 301.8)">
			</image>
		</g>
		<g>
			<g>
				
					<image style="overflow:visible;" width="21" height="1957" xlink:href="2411204F.png"  transform="matrix(0.24 0 0 0.24 516.24 -343.56)">
				</image>
				
					<image style="overflow:visible;" width="21" height="1957" xlink:href="2411206F.png"  transform="matrix(0.24 0 0 0.24 340.32 -343.56)">
				</image>
			</g>
			<g>
				<g>
					<g>
						<path class="st1" d="M526.5,136c0,21.1-17.1,38.2-38.2,38.2s-38.2-17.1-38.2-38.2c0-21.1,17.1-38.2,38.2-38.2
							S526.5,114.9,526.5,136z"/>
					</g>
					<g>
						
							<linearGradient id="SVGID_00000042722432397773757110000015347653537246346905_" gradientUnits="userSpaceOnUse" x1="488.2848" y1="92.4467" x2="488.2848" y2="194.4605">
							<stop  offset="0" style="stop-color:#515151"/>
							<stop  offset="1" style="stop-color:#252525"/>
						</linearGradient>
						<path style="fill:url(#SVGID_00000042722432397773757110000015347653537246346905_);" d="M524.9,136
							c0,20.2-16.4,36.6-36.6,36.6c-20.2,0-36.6-16.4-36.6-36.6c0-20.2,16.4-36.6,36.6-36.6C508.5,99.4,524.9,115.8,524.9,136z"/>
					</g>
					<g>
						<path class="st1" d="M514,136c0,14.2-11.5,25.8-25.8,25.8s-25.8-11.5-25.8-25.8c0-14.2,11.5-25.8,25.8-25.8S514,121.8,514,136
							z"/>
					</g>
				</g>
				<g>
					<g>
						<path class="st1" d="M411.3,136c0,21.1-17.1,38.2-38.2,38.2c-21.1,0-38.2-17.1-38.2-38.2c0-21.1,17.1-38.2,38.2-38.2
							C394.2,97.8,411.3,114.9,411.3,136z"/>
					</g>
					<g>
						
							<linearGradient id="SVGID_00000033338067769338784320000007028235735796056994_" gradientUnits="userSpaceOnUse" x1="373.1496" y1="92.4467" x2="373.1496" y2="194.4605">
							<stop  offset="0" style="stop-color:#515151"/>
							<stop  offset="1" style="stop-color:#252525"/>
						</linearGradient>
						<path style="fill:url(#SVGID_00000033338067769338784320000007028235735796056994_);" d="M409.8,136
							c0,20.2-16.4,36.6-36.6,36.6c-20.2,0-36.6-16.4-36.6-36.6c0-20.2,16.4-36.6,36.6-36.6S409.8,115.8,409.8,136z"/>
					</g>
					<g>
						<path class="st1" d="M398.9,136c0,14.2-11.5,25.8-25.8,25.8c-14.2,0-25.8-11.5-25.8-25.8c0-14.2,11.5-25.8,25.8-25.8
							C387.4,110.2,398.9,121.8,398.9,136z"/>
					</g>
				</g>
			</g>
			
				<image style="overflow:visible;" width="189" height="233" xlink:href="24112071.png"  transform="matrix(0.24 0 0 0.24 408 254.76)">
			</image>
			
				<linearGradient id="SVGID_00000085970500996979423640000014941288631759572153_" gradientUnits="userSpaceOnUse" x1="430.7172" y1="117.0714" x2="430.7172" y2="260.9424">
				<stop  offset="0" style="stop-color:#FACA00"/>
				<stop  offset="1" style="stop-color:#F0AA00"/>
			</linearGradient>
			<path style="fill:url(#SVGID_00000085970500996979423640000014941288631759572153_);" d="M430.7,272.1c-1.6,0-3.1-0.3-4.5-0.8
				l-126.8-48.2c-4-1.5-7-4.9-7.9-9.1l-11.7-52.4c-1.1-4.9,0.8-10.1,4.9-13.1l36.8-27c2.2-1.6,4.8-2.5,7.5-2.5h203.4
				c2.7,0,5.3,0.9,7.5,2.5l36.8,27c4.1,3,6,8.1,4.9,13.1L570,214c-0.9,4.2-3.9,7.6-7.9,9.1l-126.8,48.2
				C433.8,271.8,432.3,272.1,430.7,272.1z"/>
			
				<linearGradient id="SVGID_00000080913386518526575940000011637336681672857529_" gradientUnits="userSpaceOnUse" x1="430.7172" y1="108.6277" x2="430.7172" y2="285.8831">
				<stop  offset="0" style="stop-color:#FFDA00"/>
				<stop  offset="1" style="stop-color:#F5BA00"/>
			</linearGradient>
			<path style="fill:url(#SVGID_00000080913386518526575940000011637336681672857529_);" d="M322.4,122.7l-36.8,27
				c-3.6,2.6-5.3,7.1-4.3,11.5l11.7,52.4c0.8,3.7,3.4,6.7,7,8l126.8,48.2c2.6,1,5.4,1,8,0l126.8-48.2c3.5-1.3,6.1-4.4,7-8l11.7-52.4
				c1-4.3-0.7-8.8-4.3-11.5l-36.8-27c-1.9-1.4-4.2-2.2-6.6-2.2H329C326.6,120.6,324.3,121.3,322.4,122.7z"/>
			
				<linearGradient id="SVGID_00000041268919666422043170000011912421767845609610_" gradientUnits="userSpaceOnUse" x1="430.7172" y1="102.6373" x2="430.7172" y2="250.5879">
				<stop  offset="0" style="stop-color:#FACA00"/>
				<stop  offset="1" style="stop-color:#F0AA00"/>
			</linearGradient>
			<polygon style="fill:url(#SVGID_00000041268919666422043170000011912421767845609610_);" points="310.2,205.7 300.4,161.9 
				331.4,139.1 530,139.1 561,161.9 551.2,205.7 430.7,251.5 			"/>
			<g>
				<polygon class="st7" points="438.4,139.1 408.9,139.1 333.5,214.6 354.9,222.7 				"/>
				<polygon class="st7" points="533.9,142 530,139.1 507.3,139.1 404.8,241.6 426.1,249.7 				"/>
				<polygon class="st7" points="359.8,139.1 307.1,191.8 310.2,205.7 319.2,209.1 389.2,139.1 				"/>
				<polygon class="st7" points="487.6,139.1 458.1,139.1 369.1,228.1 390.5,236.2 				"/>
				<polygon class="st7" points="531.6,213.2 551.2,205.7 554.7,190 				"/>
				<polygon class="st7" points="340.1,139.1 331.4,139.1 300.4,161.9 303.5,175.7 				"/>
				<polygon class="st7" points="560.4,164.7 561,161.9 545.3,150.3 452.3,243.3 499.8,225.2 				"/>
			</g>
			<polygon class="st8" points="432.3,246.8 311.7,201.1 302.6,160.2 300.4,161.9 310.2,205.7 430.7,251.5 551.2,205.7 552.2,201.3 
							"/>
			<g>
				<g>
					<g>
						<g>
							<circle class="st9" cx="322.8" cy="183" r="9.3"/>
						</g>
						<g>
							
								<image style="overflow:visible;" width="69" height="68" xlink:href="24112073.png"  transform="matrix(0.24 0 0 0.24 314.64 174.84)">
							</image>
							
								<image style="overflow:visible;" width="62" height="62" xlink:href="24112070.png"  transform="matrix(0.24 0 0 0.24 315.36 175.56)">
							</image>
						</g>
					</g>
					<g>
						<g>
							<circle class="st9" cx="538.6" cy="183" r="9.3"/>
						</g>
						<g>
							
								<image style="overflow:visible;" width="68" height="68" xlink:href="24112077.png"  transform="matrix(0.24 0 0 0.24 530.4 174.84)">
							</image>
							
								<image style="overflow:visible;" width="62" height="62" xlink:href="24112094.png"  transform="matrix(0.24 0 0 0.24 531.12 175.56)">
							</image>
						</g>
					</g>
				</g>
				<g>
					<g>
						<g>
							<circle class="st9" cx="430.7" cy="152.9" r="9.3"/>
						</g>
						<g>
							
								<image style="overflow:visible;" width="69" height="69" xlink:href="24112097.png"  transform="matrix(0.24 0 0 0.24 422.4 144.6)">
							</image>
							
								<image style="overflow:visible;" width="63" height="63" xlink:href="24112095.png"  transform="matrix(0.24 0 0 0.24 423.12 145.32)">
							</image>
						</g>
					</g>
					<g>
						<g>
							<circle class="st9" cx="430.7" cy="230.5" r="9.3"/>
						</g>
						<g>
							
								<image style="overflow:visible;" width="69" height="68" xlink:href="2411209B.png"  transform="matrix(0.24 0 0 0.24 422.4 222.36)">
							</image>
							
								<image style="overflow:visible;" width="63" height="62" xlink:href="2411209C.png"  transform="matrix(0.24 0 0 0.24 423.12 223.08)">
							</image>
						</g>
					</g>
				</g>
			</g>
		</g>
	</g>
	<g style="clip-path:url(#SVGID_00000117659620620569062260000008885064373862501767_);">
		<rect x="137.3" y="377.3" class="st15" width="1809.4" height="562.4"/>
		<g>
			<g>
				<g>
					<path class="st16" d="M735.5,568.7v98.9l-31,25.8H630l-31.2-25.8v-98.9l-18-4.7v-36.2h77.8v36.2l-10.9,4.7v78.5l6.4,5.4h27.4
						l6.1-5.4v-78.5l-10.6-4.7v-36.2h76.4v36.2L735.5,568.7z"/>
					<path class="st16" d="M948.1,527.8v36.2l-18,4.7v124.7h-47.8l-54.6-92.2v51.6l18,4.7v36h-77.3v-36l18-4.7v-84l-18-4.7v-36.2h71
						l49.2,88.5v-47.5l-18-4.7v-36.2H948.1z"/>
					<path class="st16" d="M1076.3,693.3H962.6v-36l18-4.7v-84l-18-4.7v-36.2h115l41.4,34.3v95.8L1076.3,693.3z M1029.5,652.6h30
						l10.4-8.5V577l-9.9-8.3h-30.5V652.6z"/>
					<path class="st16" d="M1250.9,585.9l-4.7-17.3h-39.7v26.7h39.7v28.4h-39.7v28.9h39.7l4.7-17.3h35v58h-146.2v-36l18-4.7v-84
						l-18-4.7v-36.2h145.9v58.2H1250.9z"/>
					<path class="st16" d="M1306.5,693.3v-36l18-4.7v-84l-18-4.7v-36.2h123l31.9,27v49.4L1438,624l18,28.6l12.5,2.4v38.3h-44.9
						l-37.8-64.6h-12.3v23.9l18,4.7v36H1306.5z M1373.4,595.6h33.6l5.7-4.7v-17.5l-5.7-4.7h-33.6V595.6z"/>
				</g>
				<g>
					<path class="st16" d="M651.9,753h-19.2l-2.1-7.5h-14.2l-3,2.4v31.6l3.1,2.5h14.1l2.1-7.5h19.2v13c-4.8,4.1-9.7,8.1-14.6,12.1
						h-28.4l-16.5-13.7V741l15.9-13.2H638l14,11.7V753z"/>
					<path class="st16" d="M705.9,799.5h-29.3L661,786.7v-46.5l15-12.5h30.5l15,12.5v46.5C716.2,790.9,711.1,795.3,705.9,799.5z
						 M684.9,745.5l-2.8,2.2v31.9l2.9,2.4h12.4l2.9-2.4v-31.9l-2.8-2.2H684.9z"/>
					<path class="st16" d="M808.5,727.7v15.7l-7.8,2.1v54.1h-20.7l-23.7-40v22.4l7.8,2.1v15.6h-33.5v-15.6l7.8-2.1v-36.4l-7.8-2.1
						v-15.7h30.8l21.3,38.4v-20.6l-7.8-2.1v-15.7H808.5z"/>
					<path class="st16" d="M873.6,753h-19.2l-2.1-7.5h-14.3l-2.7,2.1v4.2l2.3,1.7l24.7,4.1l12,9.3v20.5l-14.7,12.1h-30.9l-14.6-12.1
						v-13h19.2l2.1,7.5h15l2.6-2.2v-4.8l-1.9-1.7l-24.6-4.1L814.3,759v-19.6l14-11.7h31.4l14,11.7V753z"/>
					<path class="st16" d="M937.7,757.4l-2.1-13h-7.9v37.5l8.8,2.1v15.6h-38.8v-15.6l8.7-2.1v-37.5h-7.9l-2.1,13h-15.2v-29.6h71.4
						v29.6H937.7z"/>
					<path class="st16" d="M959,799.5v-15.6l7.8-2.1v-36.4l-7.8-2.1v-15.7h53.3l13.8,11.7v21.4l-10.2,8.6l7.8,12.4l5.4,1v16.6h-19.5
						l-16.4-28H988v10.4l7.8,2.1v15.6H959z M988,757.2h14.6l2.5-2.1v-7.6l-2.5-2.1H988V757.2z"/>
					<path class="st16" d="M1100.8,745.5v42.9l-13.4,11.2h-32.3l-13.5-11.2v-42.9l-7.8-2.1v-15.7h33.7v15.7l-4.7,2.1v34.1l2.8,2.4
						h11.9l2.7-2.4v-34.1l-4.6-2.1v-15.7h33.1v15.7L1100.8,745.5z"/>
					<path class="st16" d="M1174.6,753h-19.2l-2.1-7.5h-14.2l-3,2.4v31.6l3.1,2.5h14.1l2.1-7.5h19.2v13c-4.8,4.1-9.7,8.1-14.6,12.1
						h-28.4l-16.5-13.7V741l15.9-13.2h29.6l14,11.7V753z"/>
					<path class="st16" d="M1237.4,757.4l-2.1-13h-7.9v37.5l8.8,2.1v15.6h-38.8v-15.6l8.7-2.1v-37.5h-7.9l-2.1,13h-15.2v-29.6h71.4
						v29.6H1237.4z"/>
					<path class="st16" d="M1290,745.5v36.4l7.8,2.1v15.6h-36.7v-15.6l7.8-2.1v-36.4l-7.8-2.1v-15.7h36.7v15.7L1290,745.5z"/>
					<path class="st16" d="M1354.3,799.5H1325l-15.5-12.8v-46.5l15-12.5h30.5l15,12.5v46.5C1364.7,790.9,1359.6,795.3,1354.3,799.5z
						 M1333.4,745.5l-2.8,2.2v31.9l2.9,2.4h12.4l2.9-2.4v-31.9l-2.8-2.2H1333.4z"/>
					<path class="st16" d="M1456.9,727.7v15.7l-7.8,2.1v54.1h-20.7l-23.7-40v22.4l7.8,2.1v15.6h-33.5v-15.6l7.8-2.1v-36.4l-7.8-2.1
						v-15.7h30.8l21.3,38.4v-20.6l-7.8-2.1v-15.7H1456.9z"/>
				</g>
			</g>
			<g>
				<g>
					<path class="st16" d="M392.6,800.3c-75.4,0-136.7-61.3-136.7-136.7S317.2,527,392.6,527s136.7,61.3,136.7,136.7
						S467.9,800.3,392.6,800.3z M392.6,535.3c-70.8,0-128.4,57.6-128.4,128.4S321.8,792,392.6,792S521,734.4,521,663.6
						S463.4,535.3,392.6,535.3z"/>
					<path class="st16" d="M425.9,614.6c-4.6-10.9-2.5-24,6.4-32.8c6.5-6.5,15.3-9.4,23.8-8.6l-13.4,13.4l5.9,22l22,5.9l12.7-12.7
						c0.3,8-2.6,16.1-8.7,22.3c-8.9,8.9-21.9,11-32.8,6.4l-29.9,29.9l-15.8-15.8L425.9,614.6z M387.8,684.4L372,668.6L343.5,697
						c-10.9-4.6-24-2.5-32.8,6.4c-6.1,6.1-9,14.2-8.7,22.3l12.7-12.7l22,5.9l5.9,22l-13.4,13.4c8.5,0.8,17.3-2.1,23.8-8.6
						c8.9-8.9,11-21.9,6.4-32.8L387.8,684.4z M357.9,577.2l-44.2,44.2c-0.8,0.8-0.8,2,0,2.8l1.7,1.7l-1.8,1.8l-3-3
						c-0.7-0.7-1.9-0.7-2.6,0l-5.6,5.6c-0.7,0.7-0.7,1.9,0,2.6l20.4,20.4c0.7,0.7,1.9,0.7,2.6,0l5.6-5.6c0.7-0.7,0.7-1.9,0-2.6l-3-3
						l1.8-1.8l1.7,1.7c0.8,0.8,2,0.8,2.8,0l9.7-9.7L453.7,742c3.3,3.3,8.7,3.3,12,0l3.8-3.8c3.3-3.3,3.3-8.7,0-12L359.7,616.3
						l3.7-3.7c5.5-5.5,5.5-14.4,0-19.9l-0.7-0.7l5.8-5.8c7.5-7.5,18.2-10,27.8-7.5c0.5,0.1,1.1,0,1.5-0.4c0.6-0.6,0.6-1.6,0-2.2
						C386.3,565.9,368.8,566.2,357.9,577.2z"/>
				</g>
				<g>
					<path class="st16" d="M1656.7,800.3c-75.4,0-136.7-61.3-136.7-136.7S1581.4,527,1656.7,527s136.7,61.3,136.7,136.7
						S1732.1,800.3,1656.7,800.3z M1656.7,535.3c-70.8,0-128.4,57.6-128.4,128.4S1585.9,792,1656.7,792
						c70.8,0,128.4-57.6,128.4-128.4S1727.5,535.3,1656.7,535.3z"/>
					<path class="st16" d="M1690.1,614.6c-4.6-10.9-2.5-24,6.4-32.8c6.5-6.5,15.3-9.4,23.8-8.6l-13.4,13.4l5.9,22l22,5.9l12.7-12.7
						c0.3,8-2.6,16.1-8.7,22.3c-8.9,8.9-21.9,11-32.8,6.4l-29.9,29.9l-15.8-15.8L1690.1,614.6z M1652,684.4l-15.8-15.8l-28.5,28.5
						c-10.9-4.6-24-2.5-32.8,6.4c-6.1,6.1-9,14.2-8.7,22.3l12.7-12.7l22,5.9l5.9,22l-13.4,13.4c8.5,0.8,17.3-2.1,23.8-8.6
						c8.9-8.9,11-21.9,6.4-32.8L1652,684.4z M1622,577.2l-44.2,44.2c-0.8,0.8-0.8,2,0,2.8l1.7,1.7l-1.8,1.8l-3-3
						c-0.7-0.7-1.9-0.7-2.6,0l-5.6,5.6c-0.7,0.7-0.7,1.9,0,2.6l20.4,20.4c0.7,0.7,1.9,0.7,2.6,0l5.6-5.6c0.7-0.7,0.7-1.9,0-2.6l-3-3
						l1.8-1.8l1.7,1.7c0.8,0.8,2,0.8,2.8,0l9.7-9.7L1717.8,742c3.3,3.3,8.7,3.3,12,0l3.8-3.8c3.3-3.3,3.3-8.7,0-12l-109.8-109.8
						l3.7-3.7c5.5-5.5,5.5-14.4,0-19.9l-0.7-0.7l5.8-5.8c7.5-7.5,18.2-10,27.8-7.5c0.5,0.1,1.1,0,1.5-0.4c0.6-0.6,0.6-1.6,0-2.2
						C1650.5,565.9,1633,566.2,1622,577.2z"/>
				</g>
			</g>
		</g>
		<g>
			<polygon class="st16" points="745.5,377.3 680.2,377.3 631.3,426.2 696.6,426.2 			"/>
			<polygon class="st16" points="861.6,377.3 796.2,377.3 747.3,426.2 812.7,426.2 			"/>
			<polygon class="st16" points="977.6,377.3 912.3,377.3 863.4,426.2 928.7,426.2 			"/>
			<polygon class="st16" points="397.4,377.3 332.1,377.3 283.2,426.2 348.5,426.2 			"/>
			<polygon class="st16" points="1093.6,377.3 1028.3,377.3 979.4,426.2 1044.7,426.2 			"/>
			<polygon class="st16" points="513.4,377.3 448.1,377.3 399.2,426.2 464.5,426.2 			"/>
			<polygon class="st16" points="629.5,377.3 564.2,377.3 515.3,426.2 580.6,426.2 			"/>
			<polygon class="st16" points="1325.7,377.3 1260.4,377.3 1211.5,426.2 1276.8,426.2 			"/>
			<polygon class="st16" points="1789.8,377.3 1724.5,377.3 1675.6,426.2 1740.9,426.2 			"/>
			<polygon class="st16" points="1673.8,377.3 1608.5,377.3 1559.6,426.2 1624.9,426.2 			"/>
			<polygon class="st16" points="1905.9,377.3 1840.6,377.3 1791.7,426.2 1857,426.2 			"/>
			<polygon class="st16" points="1557.8,377.3 1492.5,377.3 1443.6,426.2 1508.9,426.2 			"/>
			<polygon class="st16" points="281.4,377.3 216.1,377.3 167.2,426.2 232.5,426.2 			"/>
			<polygon class="st16" points="1441.7,377.3 1376.4,377.3 1327.5,426.2 1392.8,426.2 			"/>
			<polygon class="st16" points="1209.7,377.3 1144.4,377.3 1095.5,426.2 1160.8,426.2 			"/>
			<polygon class="st16" points="166.8,890.8 137.3,920.2 137.3,939.7 183.2,939.7 232.1,890.8 			"/>
			<polygon class="st16" points="1276.4,890.8 1211.1,890.8 1162.2,939.7 1227.5,939.7 			"/>
			<polygon class="st16" points="1508.5,890.8 1443.2,890.8 1394.3,939.7 1459.6,939.7 			"/>
			<polygon class="st16" points="1624.5,890.8 1559.2,890.8 1510.3,939.7 1575.6,939.7 			"/>
			<polygon class="st16" points="1392.5,890.8 1327.1,890.8 1278.2,939.7 1343.6,939.7 			"/>
			<polygon class="st16" points="1740.6,890.8 1675.3,890.8 1626.4,939.7 1691.7,939.7 			"/>
			<polygon class="st16" points="1907.7,426.2 1946.7,426.2 1946.7,387.2 			"/>
			<polygon class="st16" points="1856.6,890.8 1791.3,890.8 1742.4,939.7 1807.7,939.7 			"/>
			<polygon class="st16" points="1946.7,916.7 1946.7,890.8 1907.3,890.8 1858.4,939.7 1923.7,939.7 			"/>
			<polygon class="st16" points="464.2,890.8 398.8,890.8 349.9,939.7 415.3,939.7 			"/>
			<polygon class="st16" points="580.2,890.8 514.9,890.8 466,939.7 531.3,939.7 			"/>
			<polygon class="st16" points="696.2,890.8 630.9,890.8 582,939.7 647.3,939.7 			"/>
			<polygon class="st16" points="348.1,890.8 282.8,890.8 233.9,939.7 299.2,939.7 			"/>
			<polygon class="st16" points="812.3,890.8 747,890.8 698.1,939.7 763.4,939.7 			"/>
			<polygon class="st16" points="1044.3,890.8 979,890.8 930.1,939.7 995.4,939.7 			"/>
			<polygon class="st16" points="1160.4,890.8 1095.1,890.8 1046.2,939.7 1111.5,939.7 			"/>
			<polygon class="st16" points="928.3,890.8 863,890.8 814.1,939.7 879.4,939.7 			"/>
		</g>
	</g>
	<g style="clip-path:url(#SVGID_00000117659620620569062260000008885064373862501767_);">
		<path class="st17" d="M445.9,402.2c2,9.1,0.4,17.2-3.7,18.1c-4.1,0.9-9-5.7-11-14.8c-2-9.1-0.4-17.2,3.7-18.1
			C439,386.5,443.9,393.1,445.9,402.2z"/>
		<path class="st1" d="M447.1,401.7c2,9.1,0.4,17.2-3.7,18.1c-4.1,0.9-9-5.7-11-14.8c-2-9.1-0.4-17.2,3.7-18.1
			C440.1,386,445,392.6,447.1,401.7z"/>
		<g>
			<defs>
				<path id="SVGID_00000038401772260354753390000015479751580285202592_" d="M467,356.9C467,356.9,467,356.9,467,356.9
					c-0.3-0.2-0.7-0.4-1.1-0.6c-0.7-0.2-1.5-0.3-2.4-0.3c-2.3,0-5.1,0.9-7.5,2.6c-2.1,1.5-3.9,3.8-4.8,6.9c-0.2,0.7-0.4,1.4-0.5,2.2
					c-0.8,5.7-2,11.4-5.2,16.1c-1.5,2.2-3.6,4.2-6.2,5.7c-1.2,0.7-2.5,1.3-3.9,1.8c-0.2,0.6-0.4,1.2-0.5,1.9
					c-0.6,3.1-0.5,7.1,0.4,11.3c1.1,5,3,8.7,4.8,10.9c1.4-0.6,2.7-1.2,4.2-2c0.8-0.4,1.6-0.9,2.3-1.3c6.9-4.2,10.9-9.6,13.1-14.8
					c4.3-10.2,1.8-21.6,1.8-27c0-0.4,0-0.8,0-1.1c0.2-1.8,0.8-3.3,1.6-4.6c1-1.6,2.2-2.8,3.2-3.9c0.5-0.5,0.9-1,1.2-1.5
					C468,358.4,468,357.7,467,356.9z"/>
			</defs>
			<clipPath id="SVGID_00000142870122596698618960000005404015083875837331_">
				<use xlink:href="#SVGID_00000038401772260354753390000015479751580285202592_"  style="overflow:visible;"/>
			</clipPath>
			<g style="clip-path:url(#SVGID_00000142870122596698618960000005404015083875837331_);">
				
					<image style="overflow:visible;" width="155" height="262" xlink:href="2411209F.png"  transform="matrix(0.24 0 0 0.24 430.8 356.04)">
				</image>
			</g>
		</g>
	</g>
	<g style="clip-path:url(#SVGID_00000117659620620569062260000008885064373862501767_);">
		<path class="st17" d="M1638.1,402.2c-2,9.1-0.4,17.2,3.7,18.1c4.1,0.9,9-5.7,11-14.8c2-9.1,0.4-17.2-3.7-18.1
			C1645,386.5,1640.1,393.1,1638.1,402.2z"/>
		<path class="st1" d="M1636.9,401.7c-2,9.1-0.4,17.2,3.7,18.1c4.1,0.9,9-5.7,11-14.8c2-9.1,0.4-17.2-3.7-18.1
			C1643.9,386,1639,392.6,1636.9,401.7z"/>
		<g>
			<defs>
				<path id="SVGID_00000144312825379579994120000007930077354714068913_" d="M1617,356.9C1617,356.9,1617,356.9,1617,356.9
					c0.3-0.2,0.7-0.4,1.1-0.6c0.7-0.2,1.5-0.3,2.4-0.3c2.3,0,5.1,0.9,7.5,2.6c2.1,1.5,3.9,3.8,4.8,6.9c0.2,0.7,0.4,1.4,0.5,2.2
					c0.8,5.7,2,11.4,5.2,16.1c1.5,2.2,3.6,4.2,6.2,5.7c1.2,0.7,2.5,1.3,3.9,1.8c0.2,0.6,0.4,1.2,0.5,1.9c0.6,3.1,0.5,7.1-0.4,11.3
					c-1.1,5-3,8.7-4.8,10.9c-1.4-0.6-2.7-1.2-4.2-2c-0.8-0.4-1.6-0.9-2.3-1.3c-6.9-4.2-10.9-9.6-13.1-14.8
					c-4.3-10.2-1.8-21.6-1.8-27c0-0.4,0-0.8,0-1.1c-0.2-1.8-0.8-3.3-1.6-4.6c-1-1.6-2.2-2.8-3.2-3.9c-0.5-0.5-0.9-1-1.2-1.5
					C1616,358.4,1616,357.7,1617,356.9z"/>
			</defs>
			<clipPath id="SVGID_00000090986195237858721840000001811646829333989278_">
				<use xlink:href="#SVGID_00000144312825379579994120000007930077354714068913_"  style="overflow:visible;"/>
			</clipPath>
			<g style="clip-path:url(#SVGID_00000090986195237858721840000001811646829333989278_);">
				
					<image style="overflow:visible;" width="155" height="262" xlink:href="2411209D.png"  transform="matrix(0.24 0 0 0.24 1615.92 356.04)">
				</image>
			</g>
		</g>
	</g>
</g>
</svg>
